<svg id="svg" version="1.1" xmlns="http://www.w3.org/2000/svg" xmlns:xlink="http://www.w3.org/1999/xlink" width="400" height="400" viewBox="0, 0, 400,400"><g id="svgg"><path id="path0" d="M168.888 41.461 C 163.452 42.531,157.669 45.570,152.129 50.271 L 146.959 54.656 143.058 52.633 C 128.664 45.165,109.520 54.290,105.420 70.575 C 104.262 75.173,104.019 75.337,96.094 76.920 C 79.166 80.300,63.681 88.685,40.951 106.779 C 14.914 127.507,12.866 130.425,17.476 140.234 C 26.322 159.060,52.187 175.332,85.833 183.239 C 101.641 186.954,103.303 188.652,113.321 211.328 C 128.232 245.076,130.718 253.360,128.912 263.281 C 127.678 270.065,127.394 270.311,120.803 270.320 C 110.505 270.334,104.301 274.932,102.257 284.065 C 100.670 291.158,99.190 290.745,125.206 290.473 C 152.510 290.188,148.244 292.095,163.323 273.438 C 176.845 256.707,174.649 257.768,185.111 262.903 C 195.870 268.183,198.073 268.342,205.211 264.350 C 211.564 260.797,211.482 261.090,208.568 252.392 C 199.214 224.472,213.726 193.069,238.747 187.086 C 243.663 185.911,247.331 187.103,248.089 190.123 C 249.172 194.440,248.558 195.016,238.019 199.568 C 215.695 209.211,210.229 242.210,227.044 265.822 C 228.498 267.864,229.688 269.670,229.688 269.835 C 229.688 270.000,226.084 270.282,221.680 270.462 C 208.511 270.998,200.781 277.128,200.781 287.036 C 200.781 290.819,199.634 290.749,257.422 290.473 L 307.422 290.234 311.328 287.574 C 313.477 286.111,319.188 280.944,324.020 276.092 L 332.805 267.270 336.911 268.468 C 354.968 273.738,368.606 290.953,363.341 301.831 C 353.347 322.474,300.722 330.537,228.516 322.488 C 180.406 317.125,145.371 323.482,121.094 341.979 C 114.483 347.016,113.011 352.976,117.260 357.499 C 120.331 360.768,123.204 360.106,137.891 352.747 C 164.798 339.264,184.872 336.881,230.469 341.757 C 291.682 348.303,342.638 343.016,365.627 327.733 C 396.464 307.233,388.477 269.866,349.245 251.091 L 341.252 247.266 341.738 243.359 C 347.333 198.383,334.414 163.091,303.965 140.168 C 271.468 115.705,232.322 113.907,196.094 135.212 C 192.162 137.525,187.291 136.799,179.809 132.785 C 171.311 128.226,170.893 127.668,175.463 126.983 C 181.903 126.017,188.617 123.570,193.416 120.439 C 232.505 94.934,213.190 32.743,168.888 41.461 M183.984 61.918 C 200.936 70.878,198.396 96.360,179.688 105.026 C 172.824 108.205,149.638 107.831,147.528 104.506 C 144.934 100.419,160.448 68.225,167.148 63.791 C 172.495 60.252,179.384 59.486,183.984 61.918 M91.165 104.011 C 95.687 108.180,96.175 113.599,92.472 118.529 C 85.385 127.966,71.100 118.220,76.216 107.438 C 79.026 101.518,86.581 99.786,91.165 104.011 " stroke="none" fill="#000000" fill-rule="evenodd"></path></g></svg>